<?xml version="1.0" encoding="utf-8"?>
<!-- Generator: Adobe Illustrator 17.1.0, SVG Export Plug-In . SVG Version: 6.00 Build 0)  -->
<!DOCTYPE svg PUBLIC "-//W3C//DTD SVG 1.1//EN" "http://www.w3.org/Graphics/SVG/1.1/DTD/svg11.dtd">
<svg version="1.1" id="Ebene_1" xmlns="http://www.w3.org/2000/svg" xmlns:xlink="http://www.w3.org/1999/xlink" x="0px" y="0px"
	 viewBox="0 0 1024 500" enable-background="new 0 0 1024 500" xml:space="preserve">
<path fill="#1D1D1B" d="M644,281.2c-24.2-28.9-60.9-46.9-100.8-46.9s-76.6,18-100.8,46.9c-19.5,23.4-32,53.1-32,85.9
	c0,73.4,59.4,132.8,132.8,132.8s132.8-59.4,132.8-132.8C676.1,334.4,664.3,304.7,644,281.2z M527.6,429.7h-31.2v-125h31.2V429.7z
	 M590.1,429.7h-31.2v-125h31.2V429.7z"/>
<g>
	<path fill="#1D1D1B" d="M762.4,217.5c0-42.9-29-79-68.5-89.8c-14.4-38.2-51.2-65.4-94.4-65.4c-9.9,0-19.5,1.4-28.6,4.1
		C546.2,26.7,502.2,0.2,452.1,0.2c-76.1,0-138,60.9-139.6,136.6c-27.8,16.1-46.6,46.2-46.6,80.6c0,51.4,41.7,93.1,93.1,93.1h15.5
		v-31h-15.6c-34.2,0-62-27.8-62-62.1c0-29.4,20.4-54,47.9-60.4c-0.9-5.6-1.3-11.3-1.3-17.1c0-60,48.6-108.6,108.6-108.6
		c49.1,0,90.5,32.5,104,77.2c11.9-9.5,27-15.1,43.4-15.1c35.9,0,65.5,27.2,69.4,62.1h0.5c34.2,0,62,27.8,62,62.1
		c0,30.6-22.2,56.1-51.4,61.1c5.9,8.9,10.9,18.4,14.9,28.4C733.8,295.9,762.4,259.9,762.4,217.5z"/>
</g>
</svg>
