<?xml version="1.0" encoding="utf-8"?>
<!-- Generator: Adobe Illustrator 17.1.0, SVG Export Plug-In . SVG Version: 6.00 Build 0)  -->
<!DOCTYPE svg PUBLIC "-//W3C//DTD SVG 1.1//EN" "http://www.w3.org/Graphics/SVG/1.1/DTD/svg11.dtd">
<svg version="1.1" id="Ebene_1" xmlns="http://www.w3.org/2000/svg" xmlns:xlink="http://www.w3.org/1999/xlink" x="0px" y="0px"
	 viewBox="0 0 1024 500" enable-background="new 0 0 1024 500" xml:space="preserve">
<path fill="#1D1D1B" d="M644,281.2c-24.2-28.9-60.9-46.9-100.8-46.9s-76.6,18-100.8,46.9c-19.5,23.4-32,53.1-32,85.9
	c0,73.4,59.4,132.8,132.8,132.8s132.8-59.4,132.8-132.8C676.1,334.4,664.3,304.7,644,281.2z M600.3,424.2c-3.1,3.1-7.8,5.5-13.3,5.5
	s-10.2-2.3-14.1-6.2l-29.7-28.9L512.8,425l0,0c-3.1,3.1-7.8,4.7-12.5,5.5c-0.8,0-0.8,0-1.6,0c-4.7,0-8.6-1.6-12.5-5.5
	c-3.1-3.1-5.5-7.8-5.5-12.5c0-5.5,1.6-9.4,5.5-13.3l31.3-31.2l-31.3-31.2c-3.9-3.9-5.5-7.8-4.7-13.3c0-4.7,2.3-8.6,5.5-12.5l0,0l0,0
	c3.9-3.9,7.8-5.5,12.5-5.5c0.8,0,0.8,0,1.6,0c4.7,0,9.4,2.3,12.5,5.5l0,0l30.5,30.5l31.2-30.5c3.9-3.9,7.8-5.5,12.5-5.5l0,0
	c4.7,0,9.4,2.3,13.3,5.5l0,0c3.1,3.1,5.5,7.8,5.5,13.3s-1.6,9.4-5.5,13.3l-31.2,29.7l30.5,30.5c3.1,3.1,5.5,7.8,5.5,13.3
	C605.8,416.4,604.2,421.1,600.3,424.2z"/>
<g>
	<path fill="#1D1D1B" d="M762.4,217.5c0-42.9-29-79-68.5-89.8c-14.4-38.2-51.2-65.4-94.4-65.4c-9.9,0-19.5,1.4-28.6,4.1
		C546.2,26.7,502.2,0.2,452.1,0.2c-76.1,0-138,60.9-139.6,136.6c-27.8,16.1-46.6,46.2-46.6,80.6c0,51.4,41.7,93.1,93.1,93.1h15.5
		v-31h-15.6c-34.2,0-62-27.8-62-62.1c0-29.4,20.4-54,47.9-60.4c-0.9-5.6-1.3-11.3-1.3-17.1c0-60,48.6-108.6,108.6-108.6
		c49.1,0,90.5,32.5,104,77.2c11.9-9.5,27-15.1,43.4-15.1c35.9,0,65.5,27.2,69.4,62.1h0.5c34.2,0,62,27.8,62,62.1
		c0,30.6-22.2,56.1-51.4,61.1c5.9,8.9,10.9,18.4,14.9,28.4C733.8,295.9,762.4,259.9,762.4,217.5z"/>
</g>
</svg>
