<?xml version="1.0" encoding="utf-8"?>
<!-- Generator: Adobe Illustrator 17.1.0, SVG Export Plug-In . SVG Version: 6.00 Build 0)  -->
<!DOCTYPE svg PUBLIC "-//W3C//DTD SVG 1.1//EN" "http://www.w3.org/Graphics/SVG/1.1/DTD/svg11.dtd">
<svg version="1.1"
	 id="svg2" xmlns:inkscape="http://www.inkscape.org/namespaces/inkscape" xmlns:cc="http://creativecommons.org/ns#" xmlns:sodipodi="http://sodipodi.sourceforge.net/DTD/sodipodi-0.dtd" xmlns:dc="http://purl.org/dc/elements/1.1/" xmlns:svg="http://www.w3.org/2000/svg" xmlns:rdf="http://www.w3.org/1999/02/22-rdf-syntax-ns#" sodipodi:docname="installer-background.svg" inkscape:version="0.48.4 r9939"
	 xmlns="http://www.w3.org/2000/svg" xmlns:xlink="http://www.w3.org/1999/xlink" x="0px" y="0px" viewBox="0 0 320 200"
	 enable-background="new 0 0 320 200" xml:space="preserve">
<sodipodi:namedview  fit-margin-left="0" pagecolor="#ffffff" fit-margin-top="0" objecttolerance="10" guidetolerance="10" showgrid="false" borderopacity="1" bordercolor="#666666" gridtolerance="10" inkscape:zoom="0.734375" inkscape:cy="236.17459" inkscape:cx="-49.141255" inkscape:window-width="1920" fit-margin-bottom="0" inkscape:window-height="1002" inkscape:pageshadow="2" inkscape:window-x="0" inkscape:pageopacity="0" inkscape:window-maximized="1" fit-margin-right="0" inkscape:window-y="34" inkscape:current-layer="svg2" id="namedview8">
	</sodipodi:namedview>
<path fill="#FFFFFF" d="M97.2,239.3v-4c0-4.9-3.9-8.8-8.8-8.8c-4.9,0-8.8,3.9-8.8,8.8v4c0,4.8,3.9,8.8,8.8,8.8
	C93.3,248.1,97.2,244.2,97.2,239.3"/>
<path fill="#FFFFFF" d="M103.2,244.2c-1.9,6.4-7.8,11-14.8,11c-7,0-12.8-4.7-14.8-11H13.2c-3.8,0-7.4-0.9-10.6-2.4v40.1
	c0,7.8,6.4,14.2,14.2,14.2H160c7.8,0,14.2-6.4,14.2-14.2v-40.1c-3.2,1.5-6.8,2.4-10.6,2.4H103.2z"/>
<path fill="#FFFFFF" d="M61.7,172.1c1.8-5.5,6.9-9.5,13-9.5h27.4c6.1,0,11.2,4,13,9.5H61.7z M163.1,172.1h-34.2
	c-2.1-12.9-13.2-22.8-26.7-22.8H74.7c-13.5,0-24.7,9.9-26.7,22.8H13.8c-8.2,0-14.8,6.4-14.8,14.3v32.9c0,7.9,6.4,14.3,14.2,14.3H73
	c0.2-4.1,2-7.8,4.7-10.4c0.1-0.1,0.2-0.1,0.3-0.2c0.6-0.6,1.3-1.1,2-1.6c0.2-0.2,0.5-0.3,0.8-0.4c0.6-0.3,1.1-0.7,1.8-0.9
	c0.5-0.2,1-0.3,1.5-0.5c0.5-0.1,0.9-0.3,1.3-0.4c1-0.2,2-0.3,3.1-0.3c1.1,0,2.1,0.1,3.1,0.3c0.5,0.1,0.9,0.3,1.3,0.4
	c0.5,0.1,1,0.3,1.5,0.5c0.6,0.3,1.2,0.6,1.8,0.9c0.3,0.1,0.5,0.3,0.8,0.4c0.7,0.5,1.3,1,1.9,1.6c0.1,0.1,0.2,0.1,0.3,0.2
	c2.8,2.7,4.5,6.3,4.7,10.4h59.8c7.9,0,14.2-6.4,14.2-14.2v-32.9C177.9,178.6,171.2,172.1,163.1,172.1"/>
<path fill="#FFFFFF" d="M235.7,130.9c-11.4-30.3-40.6-51.8-74.9-51.8c-7.9,0-15.5,1.1-22.7,3.3C118.7,50.8,83.8,29.9,44,29.9
	c-60.3,0-109.4,48.3-110.7,108.3c-22.1,12.8-36.9,36.6-36.9,63.9c0,40.7,33.1,73.8,73.8,73.8h12.3v-24.6h-12.3
	c-27.1,0-49.2-22-49.2-49.2c0-23.3,16.2-42.8,38-47.9c-0.7-4.4-1.1-9-1.1-13.6C-42.1,93-3.6,54.5,44,54.5
	c38.9,0,71.8,25.8,82.5,61.2c9.5-7.5,21.4-12,34.4-12c28.5,0,52,21.5,55,49.2h0.4c27.1,0,49.2,22,49.2,49.2
	c0,27.1-22,49.2-49.2,49.2h-23.7c-0.1,10.2-0.1,15.6-0.1,24.6h23.8c40.8,0,73.8-33.1,73.8-73.8C290.1,168.1,267,139.5,235.7,130.9"
	/>
</svg>
