<?xml version="1.0" encoding="utf-8"?>
<!-- Generator: Adobe Illustrator 17.1.0, SVG Export Plug-In . SVG Version: 6.00 Build 0)  -->
<!DOCTYPE svg PUBLIC "-//W3C//DTD SVG 1.1//EN" "http://www.w3.org/Graphics/SVG/1.1/DTD/svg11.dtd">
<svg version="1.1"
	 id="Layer_1" xmlns:inkscape="http://www.inkscape.org/namespaces/inkscape" xmlns:cc="http://creativecommons.org/ns#" xmlns:sodipodi="http://sodipodi.sourceforge.net/DTD/sodipodi-0.dtd" xmlns:dc="http://purl.org/dc/elements/1.1/" xmlns:svg="http://www.w3.org/2000/svg" xmlns:rdf="http://www.w3.org/1999/02/22-rdf-syntax-ns#" inkscape:export-filename="/home/user/owncloud/core/img/icon.png" inkscape:export-ydpi="89.826416" inkscape:export-xdpi="89.826416" sodipodi:docname="icon-light.svg" inkscape:version="0.48.3.1 r9886"
	 xmlns="http://www.w3.org/2000/svg" xmlns:xlink="http://www.w3.org/1999/xlink" x="0px" y="0px" viewBox="0 0 32 32"
	 enable-background="new 0 0 32 32" xml:space="preserve">
<g>
	<path fill="#008AD1" d="M16.3,22.1v-0.3c0-0.4-0.3-0.7-0.7-0.7c-0.4,0-0.7,0.3-0.7,0.7v0.3c0,0.4,0.3,0.7,0.7,0.7
		C16,22.8,16.3,22.5,16.3,22.1"/>
	<path fill="#008AD1" d="M16.8,22.5c-0.2,0.5-0.6,0.9-1.2,0.9c-0.6,0-1-0.4-1.2-0.9H9.6c-0.3,0-0.6-0.1-0.9-0.2v3.2
		c0,0.6,0.5,1.1,1.1,1.1h11.5c0.6,0,1.1-0.5,1.1-1.1v-3.2c-0.3,0.1-0.5,0.2-0.9,0.2H16.8z"/>
	<path fill="#008AD1" d="M13.5,16.7c0.1-0.4,0.6-0.8,1-0.8h2.2c0.5,0,0.9,0.3,1,0.8H13.5z M21.6,16.7h-2.7c-0.2-1-1.1-1.8-2.1-1.8
		h-2.2c-1.1,0-2,0.8-2.1,1.8H9.6c-0.7,0-1.2,0.5-1.2,1.1v2.6c0,0.6,0.5,1.1,1.1,1.1h4.8c0-0.3,0.2-0.6,0.4-0.8c0,0,0,0,0,0
		c0.1,0,0.1-0.1,0.2-0.1c0,0,0,0,0.1,0c0,0,0.1-0.1,0.1-0.1c0,0,0.1,0,0.1,0c0,0,0.1,0,0.1,0c0.1,0,0.2,0,0.2,0c0.1,0,0.2,0,0.2,0
		c0,0,0.1,0,0.1,0c0,0,0.1,0,0.1,0c0,0,0.1,0,0.1,0.1c0,0,0,0,0.1,0c0.1,0,0.1,0.1,0.2,0.1c0,0,0,0,0,0c0.2,0.2,0.4,0.5,0.4,0.8h4.8
		c0.6,0,1.1-0.5,1.1-1.1v-2.6C22.8,17.2,22.2,16.7,21.6,16.7"/>
	<path fill="#008AD1" d="M27.4,13.4c-0.9-2.4-3.3-4.1-6-4.1c-0.6,0-1.2,0.1-1.8,0.3C18,7,15.2,5.3,12.1,5.3c-4.8,0-8.8,3.9-8.9,8.7
		c-1.8,1-3,2.9-3,5.1c0,3.3,2.6,5.9,5.9,5.9h1v-2h-1c-2.2,0-3.9-1.8-3.9-3.9c0-1.9,1.3-3.4,3-3.8c-0.1-0.4-0.1-0.7-0.1-1.1
		c0-3.8,3.1-6.9,6.9-6.9c3.1,0,5.7,2.1,6.6,4.9c0.8-0.6,1.7-1,2.8-1c2.3,0,4.2,1.7,4.4,3.9h0c2.2,0,3.9,1.8,3.9,3.9
		c0,2.2-1.8,3.9-3.9,3.9h-1.9c0,0.8,0,1.3,0,2h1.9c3.3,0,5.9-2.7,5.9-5.9C31.8,16.4,29.9,14.1,27.4,13.4"/>
</g>
</svg>
